<svg width="32" height="32" viewBox="0 0 32 32" fill="none" xmlns="http://www.w3.org/2000/svg">
<path d="M7.79996 23.1333C8.93329 22.2667 10.2 21.5833 11.6 21.0833C13 20.5833 14.4666 20.3333 16 20.3333C17.5333 20.3333 19 20.5833 20.4 21.0833C21.8 21.5833 23.0666 22.2667 24.2 23.1333C24.9777 22.2222 25.5833 21.1889 26.0166 20.0333C26.45 18.8778 26.6666 17.6444 26.6666 16.3333C26.6666 13.3778 25.6277 10.8611 23.55 8.78333C21.4722 6.70556 18.9555 5.66667 16 5.66667C13.0444 5.66667 10.5277 6.70556 8.44996 8.78333C6.37218 10.8611 5.33329 13.3778 5.33329 16.3333C5.33329 17.6444 5.54996 18.8778 5.98329 20.0333C6.41663 21.1889 7.02218 22.2222 7.79996 23.1333ZM16 17.6667C14.6888 17.6667 13.5833 17.2167 12.6833 16.3167C11.7833 15.4167 11.3333 14.3111 11.3333 13C11.3333 11.6889 11.7833 10.5833 12.6833 9.68333C13.5833 8.78333 14.6888 8.33333 16 8.33333C17.3111 8.33333 18.4166 8.78333 19.3166 9.68333C20.2166 10.5833 20.6666 11.6889 20.6666 13C20.6666 14.3111 20.2166 15.4167 19.3166 16.3167C18.4166 17.2167 17.3111 17.6667 16 17.6667ZM16 29.6667C14.1555 29.6667 12.4222 29.3167 10.8 28.6167C9.17774 27.9167 7.76663 26.9667 6.56663 25.7667C5.36663 24.5667 4.41663 23.1556 3.71663 21.5333C3.01663 19.9111 2.66663 18.1778 2.66663 16.3333C2.66663 14.4889 3.01663 12.7556 3.71663 11.1333C4.41663 9.51111 5.36663 8.1 6.56663 6.9C7.76663 5.7 9.17774 4.75 10.8 4.05C12.4222 3.35 14.1555 3 16 3C17.8444 3 19.5777 3.35 21.2 4.05C22.8222 4.75 24.2333 5.7 25.4333 6.9C26.6333 8.1 27.5833 9.51111 28.2833 11.1333C28.9833 12.7556 29.3333 14.4889 29.3333 16.3333C29.3333 18.1778 28.9833 19.9111 28.2833 21.5333C27.5833 23.1556 26.6333 24.5667 25.4333 25.7667C24.2333 26.9667 22.8222 27.9167 21.2 28.6167C19.5777 29.3167 17.8444 29.6667 16 29.6667ZM16 27C17.1777 27 18.2888 26.8278 19.3333 26.4833C20.3777 26.1389 21.3333 25.6444 22.2 25C21.3333 24.3556 20.3777 23.8611 19.3333 23.5167C18.2888 23.1722 17.1777 23 16 23C14.8222 23 13.7111 23.1722 12.6666 23.5167C11.6222 23.8611 10.6666 24.3556 9.79996 25C10.6666 25.6444 11.6222 26.1389 12.6666 26.4833C13.7111 26.8278 14.8222 27 16 27ZM16 15C16.5777 15 17.0555 14.8111 17.4333 14.4333C17.8111 14.0556 18 13.5778 18 13C18 12.4222 17.8111 11.9444 17.4333 11.5667C17.0555 11.1889 16.5777 11 16 11C15.4222 11 14.9444 11.1889 14.5666 11.5667C14.1888 11.9444 14 12.4222 14 13C14 13.5778 14.1888 14.0556 14.5666 14.4333C14.9444 14.8111 15.4222 15 16 15Z" fill="white" fill-opacity="0.8"/>
</svg>
